<?xml version='1.0' encoding='utf-8'?>
<mxfile host="app.diagrams.net" modified="2025-08-17T02:54:25.153099Z" agent="python/3" version="22.0.0" type="device"><diagram id="MapaCap1Plus" name="Capítulo 1 — Clean Code (ampliado)"><mxGraphModel dx="1222" dy="686" grid="1" gridSize="10" guides="1" tooltips="1" connect="1" arrows="1" fold="1" page="1" pageScale="1" pageWidth="1800" pageHeight="1100" math="0" shadow="0"><root><mxCell id="0" /><mxCell id="1" parent="0" /><mxCell id="T" value="Capítulo 1 — Clean Code (Mapa conceptual)" vertex="1" parent="1" style="rounded=0;whiteSpace=wrap;html=1;fontSize=24;fontStyle=1;align=center;strokeWidth=2;"><mxGeometry x="120" y="10" width="1100" height="60" as="geometry" /></mxCell><mxCell id="A" value="Clean Code (Capítulo 1)" vertex="1" parent="1" style="rounded=1;whiteSpace=wrap;html=1;fontSize=14;"><mxGeometry x="560" y="100" width="240" height="60" as="geometry" /></mxCell><mxCell id="B" value="Habrá código" vertex="1" parent="1" style="rounded=1;whiteSpace=wrap;html=1;fontSize=14;"><mxGeometry x="100" y="220" width="180" height="60" as="geometry" /></mxCell><mxCell id="C" value="Código desordenado" vertex="1" parent="1" style="rounded=1;whiteSpace=wrap;html=1;fontSize=14;"><mxGeometry x="360" y="220" width="220" height="60" as="geometry" /></mxCell><mxCell id="E" value="Profesionalismo" vertex="1" parent="1" style="rounded=1;whiteSpace=wrap;html=1;fontSize=14;"><mxGeometry x="640" y="220" width="180" height="60" as="geometry" /></mxCell><mxCell id="F" value="Qué es código limpio" vertex="1" parent="1" style="rounded=1;whiteSpace=wrap;html=1;fontSize=14;"><mxGeometry x="920" y="220" width="220" height="60" as="geometry" /></mxCell><mxCell id="H" value="Somos autores" vertex="1" parent="1" style="rounded=1;whiteSpace=wrap;html=1;fontSize=14;"><mxGeometry x="260" y="340" width="200" height="60" as="geometry" /></mxCell><mxCell id="G" value="Mejora continua" vertex="1" parent="1" style="rounded=1;whiteSpace=wrap;html=1;fontSize=14;"><mxGeometry x="640" y="340" width="200" height="60" as="geometry" /></mxCell><mxCell id="I" value="Principios y práctica" vertex="1" parent="1" style="rounded=1;whiteSpace=wrap;html=1;fontSize=14;"><mxGeometry x="980" y="340" width="220" height="60" as="geometry" /></mxCell><mxCell id="D" value="Costo de la desorganización" vertex="1" parent="1" style="rounded=1;whiteSpace=wrap;html=1;fontSize=14;"><mxGeometry x="360" y="340" width="260" height="60" as="geometry" /></mxCell><mxCell id="J" value="Conclusión" vertex="1" parent="1" style="rounded=1;whiteSpace=wrap;html=1;fontSize=14;"><mxGeometry x="640" y="460" width="180" height="60" as="geometry" /></mxCell><mxCell id="K" value="Legibilidad" vertex="1" parent="1" style="rounded=1;whiteSpace=wrap;html=1;fontSize=14;"><mxGeometry x="940" y="300" width="160" height="50" as="geometry" /></mxCell><mxCell id="L" value="Simpleza" vertex="1" parent="1" style="rounded=1;whiteSpace=wrap;html=1;fontSize=14;"><mxGeometry x="1120" y="300" width="160" height="50" as="geometry" /></mxCell><mxCell id="Q" value="Enfoque" vertex="1" parent="1" style="rounded=1;whiteSpace=wrap;html=1;fontSize=14;"><mxGeometry x="880" y="300" width="160" height="50" as="geometry" /></mxCell><mxCell id="M" value="Pruebas" vertex="1" parent="1" style="rounded=1;whiteSpace=wrap;html=1;fontSize=14;"><mxGeometry x="1030" y="380" width="160" height="50" as="geometry" /></mxCell><mxCell id="R" value="Regla del Boy Scout" vertex="1" parent="1" style="rounded=1;whiteSpace=wrap;html=1;fontSize=14;"><mxGeometry x="580" y="420" width="200" height="50" as="geometry" /></mxCell><mxCell id="N" value="Deuda técnica" vertex="1" parent="1" style="rounded=1;whiteSpace=wrap;html=1;fontSize=14;"><mxGeometry x="360" y="420" width="180" height="50" as="geometry" /></mxCell><mxCell id="P" value="Lectores futuros" vertex="1" parent="1" style="rounded=1;whiteSpace=wrap;html=1;fontSize=14;"><mxGeometry x="160" y="420" width="200" height="50" as="geometry" /></mxCell><mxCell id="S" value="Calidad = velocidad sostenible" vertex="1" parent="1" style="rounded=1;whiteSpace=wrap;html=1;fontSize=14;"><mxGeometry x="860" y="520" width="280" height="50" as="geometry" /></mxCell><mxCell id="e201" value="fundamenta" style="edgeStyle=orthogonalEdgeStyle;rounded=1;endArrow=block;endFill=1;html=1;fontSize=12;" edge="1" parent="1" source="A" target="B"><mxGeometry relative="1" as="geometry"><mxPoint x="0" y="0" as="offset" /></mxGeometry></mxCell><mxCell id="e202" value="contrasta con" style="edgeStyle=orthogonalEdgeStyle;rounded=1;endArrow=block;endFill=1;html=1;fontSize=12;" edge="1" parent="1" source="A" target="C"><mxGeometry relative="1" as="geometry"><mxPoint x="0" y="0" as="offset" /></mxGeometry></mxCell><mxCell id="e203" value="incrementa" style="edgeStyle=orthogonalEdgeStyle;rounded=1;endArrow=block;endFill=1;html=1;fontSize=12;" edge="1" parent="1" source="C" target="D"><mxGeometry relative="1" as="geometry"><mxPoint x="0" y="0" as="offset" /></mxGeometry></mxCell><mxCell id="e204" value="promueve" style="edgeStyle=orthogonalEdgeStyle;rounded=1;endArrow=block;endFill=1;html=1;fontSize=12;" edge="1" parent="1" source="A" target="E"><mxGeometry relative="1" as="geometry"><mxPoint x="0" y="0" as="offset" /></mxGeometry></mxCell><mxCell id="e205" value="define" style="edgeStyle=orthogonalEdgeStyle;rounded=1;endArrow=block;endFill=1;html=1;fontSize=12;" edge="1" parent="1" source="A" target="F"><mxGeometry relative="1" as="geometry"><mxPoint x="0" y="0" as="offset" /></mxGeometry></mxCell><mxCell id="e206" value="enfatiza" style="edgeStyle=orthogonalEdgeStyle;rounded=1;endArrow=block;endFill=1;html=1;fontSize=12;" edge="1" parent="1" source="A" target="H"><mxGeometry relative="1" as="geometry"><mxPoint x="0" y="0" as="offset" /></mxGeometry></mxCell><mxCell id="e207" value="requiere" style="edgeStyle=orthogonalEdgeStyle;rounded=1;endArrow=block;endFill=1;html=1;fontSize=12;" edge="1" parent="1" source="A" target="G"><mxGeometry relative="1" as="geometry"><mxPoint x="0" y="0" as="offset" /></mxGeometry></mxCell><mxCell id="e208" value="se aplica con" style="edgeStyle=orthogonalEdgeStyle;rounded=1;endArrow=block;endFill=1;html=1;fontSize=12;" edge="1" parent="1" source="A" target="I"><mxGeometry relative="1" as="geometry"><mxPoint x="0" y="0" as="offset" /></mxGeometry></mxCell><mxCell id="e209" value="refuerza" style="edgeStyle=orthogonalEdgeStyle;rounded=1;endArrow=block;endFill=1;html=1;fontSize=12;" edge="1" parent="1" source="I" target="G"><mxGeometry relative="1" as="geometry"><mxPoint x="0" y="0" as="offset" /></mxGeometry></mxCell><mxCell id="e210" value="cierra en" style="edgeStyle=orthogonalEdgeStyle;rounded=1;endArrow=block;endFill=1;html=1;fontSize=12;" edge="1" parent="1" source="A" target="J"><mxGeometry relative="1" as="geometry"><mxPoint x="0" y="0" as="offset" /></mxGeometry></mxCell><mxCell id="e211" value="incluye" style="edgeStyle=orthogonalEdgeStyle;rounded=1;endArrow=block;endFill=1;html=1;fontSize=12;" edge="1" parent="1" source="F" target="K"><mxGeometry relative="1" as="geometry"><mxPoint x="0" y="0" as="offset" /></mxGeometry></mxCell><mxCell id="e212" value="incluye" style="edgeStyle=orthogonalEdgeStyle;rounded=1;endArrow=block;endFill=1;html=1;fontSize=12;" edge="1" parent="1" source="F" target="L"><mxGeometry relative="1" as="geometry"><mxPoint x="0" y="0" as="offset" /></mxGeometry></mxCell><mxCell id="e213" value="incluye" style="edgeStyle=orthogonalEdgeStyle;rounded=1;endArrow=block;endFill=1;html=1;fontSize=12;" edge="1" parent="1" source="F" target="Q"><mxGeometry relative="1" as="geometry"><mxPoint x="0" y="0" as="offset" /></mxGeometry></mxCell><mxCell id="e214" value="requiere" style="edgeStyle=orthogonalEdgeStyle;rounded=1;endArrow=block;endFill=1;html=1;fontSize=12;" edge="1" parent="1" source="F" target="M"><mxGeometry relative="1" as="geometry"><mxPoint x="0" y="0" as="offset" /></mxGeometry></mxCell><mxCell id="e215" value="se guía por" style="edgeStyle=orthogonalEdgeStyle;rounded=1;endArrow=block;endFill=1;html=1;fontSize=12;" edge="1" parent="1" source="G" target="R"><mxGeometry relative="1" as="geometry"><mxPoint x="0" y="0" as="offset" /></mxGeometry></mxCell><mxCell id="e216" value="genera" style="edgeStyle=orthogonalEdgeStyle;rounded=1;endArrow=block;endFill=1;html=1;fontSize=12;" edge="1" parent="1" source="C" target="N"><mxGeometry relative="1" as="geometry"><mxPoint x="0" y="0" as="offset" /></mxGeometry></mxCell><mxCell id="e217" value="escribimos para" style="edgeStyle=orthogonalEdgeStyle;rounded=1;endArrow=block;endFill=1;html=1;fontSize=12;" edge="1" parent="1" source="H" target="P"><mxGeometry relative="1" as="geometry"><mxPoint x="0" y="0" as="offset" /></mxGeometry></mxCell><mxCell id="e218" value="enfatiza" style="edgeStyle=orthogonalEdgeStyle;rounded=1;endArrow=block;endFill=1;html=1;fontSize=12;" edge="1" parent="1" source="J" target="S"><mxGeometry relative="1" as="geometry"><mxPoint x="0" y="0" as="offset" /></mxGeometry></mxCell><mxCell id="e219" value="reduce" style="edgeStyle=orthogonalEdgeStyle;rounded=1;endArrow=block;endFill=1;html=1;fontSize=12;" edge="1" parent="1" source="N" target="G"><mxGeometry relative="1" as="geometry"><mxPoint x="0" y="0" as="offset" /></mxGeometry></mxCell><mxCell id="e220" value="protegen" style="edgeStyle=orthogonalEdgeStyle;rounded=1;endArrow=block;endFill=1;html=1;fontSize=12;" edge="1" parent="1" source="M" target="G"><mxGeometry relative="1" as="geometry"><mxPoint x="0" y="0" as="offset" /></mxGeometry></mxCell></root></mxGraphModel></diagram></mxfile>